<svg width="184" height="60" viewBox="0 0 184 60" fill="none" xmlns="http://www.w3.org/2000/svg">
<path d="M56.17 30.05H61.42V41H57.31V39.71C55.89 40.85 54.01 41.42 51.67 41.42C49.71 41.42 47.92 41 46.3 40.16C44.68 39.32 43.39 38.1 42.43 36.5C41.49 34.88 41.02 32.95 41.02 30.71C41.02 28.55 41.52 26.63 42.52 24.95C43.52 23.25 44.91 21.93 46.69 20.99C48.47 20.05 50.48 19.58 52.72 19.58C54.68 19.58 56.44 19.91 58 20.57C59.56 21.23 60.86 22.18 61.9 23.42L58.12 26.84C56.7 25.28 55 24.5 53.02 24.5C51.2 24.5 49.74 25.06 48.64 26.18C47.56 27.28 47.02 28.78 47.02 30.68C47.02 32.6 47.53 34.07 48.55 35.09C49.57 36.11 50.86 36.62 52.42 36.62C53.92 36.62 55.17 36.22 56.17 35.42V30.05ZM79.2559 30.05H84.5059V41H80.3959V39.71C78.9759 40.85 77.0959 41.42 74.7559 41.42C72.7959 41.42 71.0059 41 69.3859 40.16C67.7659 39.32 66.4759 38.1 65.5159 36.5C64.5759 34.88 64.1059 32.95 64.1059 30.71C64.1059 28.55 64.6059 26.63 65.6059 24.95C66.6059 23.25 67.9959 21.93 69.7759 20.99C71.5559 20.05 73.5659 19.58 75.8059 19.58C77.7659 19.58 79.5259 19.91 81.0859 20.57C82.6459 21.23 83.9459 22.18 84.9859 23.42L81.2059 26.84C79.7859 25.28 78.0859 24.5 76.1059 24.5C74.2859 24.5 72.8259 25.06 71.7259 26.18C70.6459 27.28 70.1059 28.78 70.1059 30.68C70.1059 32.6 70.6159 34.07 71.6359 35.09C72.6559 36.11 73.9459 36.62 75.5059 36.62C77.0059 36.62 78.2559 36.22 79.2559 35.42V30.05ZM96.3719 33.38L94.1519 35.75V41H88.2719V20H94.1519V28.73L102.282 20H108.822L100.242 29.3L109.272 41H102.372L96.3719 33.38ZM120.978 24.5C119.458 24.5 118.298 24.83 117.498 25.49C116.698 26.15 116.298 27.15 116.298 28.49V29.21H124.368V33.8H116.298V41H110.358V28.58C110.358 25.72 111.248 23.51 113.028 21.95C114.808 20.37 117.308 19.58 120.528 19.58C121.748 19.58 122.888 19.7 123.948 19.94C125.028 20.18 125.948 20.52 126.708 20.96L124.967 25.52C123.808 24.84 122.478 24.5 120.978 24.5Z" fill="black"/>
<circle cx="18" cy="30" r="18" fill="black"/>
</svg>
