<svg width="241" height="44" viewBox="0 0 241 44" fill="none" xmlns="http://www.w3.org/2000/svg">
<rect width="241" height="44" rx="22" fill="black"/>
<path d="M74.48 27.04C73.9467 27.4027 73.2747 27.6853 72.464 27.888C71.664 28.0907 70.8107 28.192 69.904 28.192C68.7733 28.192 67.8133 28.0533 67.024 27.776C66.2347 27.488 65.6373 27.0933 65.232 26.592C64.8267 26.08 64.624 25.4987 64.624 24.848C64.624 24.2507 64.7893 23.7227 65.12 23.264C65.4507 22.8053 65.904 22.464 66.48 22.24C66.0427 22.0053 65.7013 21.6853 65.456 21.28C65.2213 20.8747 65.104 20.4213 65.104 19.92C65.104 19.312 65.2907 18.7573 65.664 18.256C66.0373 17.7547 66.6027 17.3547 67.36 17.056C68.1173 16.7573 69.0453 16.608 70.144 16.608C70.8693 16.608 71.5787 16.6827 72.272 16.832C72.9653 16.9707 73.568 17.1627 74.08 17.408L73.36 19.392C72.3787 18.9333 71.3387 18.704 70.24 18.704C69.408 18.704 68.7787 18.832 68.352 19.088C67.936 19.3333 67.728 19.6693 67.728 20.096C67.728 20.4907 67.8667 20.7947 68.144 21.008C68.432 21.2107 68.864 21.312 69.44 21.312H72.496V23.36H69.28C68.6293 23.36 68.128 23.472 67.776 23.696C67.424 23.92 67.248 24.2453 67.248 24.672C67.248 25.12 67.472 25.472 67.92 25.728C68.3787 25.9733 69.0773 26.096 70.016 26.096C70.6773 26.096 71.3387 26.0107 72 25.84C72.6613 25.6587 73.2213 25.408 73.68 25.088L74.48 27.04ZM82.9934 28L80.2894 24.112L77.6334 28H74.6574L78.8014 22.304L74.8654 16.8H77.8094L80.3854 20.432L82.9134 16.8H85.7134L81.8094 22.208L85.9854 28H82.9934ZM91.8479 16.8C92.8399 16.8 93.6985 16.9653 94.4239 17.296C95.1599 17.6267 95.7252 18.096 96.1199 18.704C96.5145 19.312 96.7119 20.032 96.7119 20.864C96.7119 21.6853 96.5145 22.4053 96.1199 23.024C95.7252 23.632 95.1599 24.1013 94.4239 24.432C93.6985 24.752 92.8399 24.912 91.8479 24.912H89.5919V28H86.9999V16.8H91.8479ZM91.7039 22.8C92.4825 22.8 93.0745 22.6347 93.4799 22.304C93.8852 21.9627 94.0879 21.4827 94.0879 20.864C94.0879 20.2347 93.8852 19.7547 93.4799 19.424C93.0745 19.0827 92.4825 18.912 91.7039 18.912H89.5919V22.8H91.7039ZM98.5624 16.8H101.154V25.888H106.77V28H98.5624V16.8ZM113.455 28.192C112.292 28.192 111.242 27.9413 110.303 27.44C109.375 26.9387 108.644 26.2507 108.111 25.376C107.588 24.4907 107.327 23.4987 107.327 22.4C107.327 21.3013 107.588 20.3147 108.111 19.44C108.644 18.5547 109.375 17.8613 110.303 17.36C111.242 16.8587 112.292 16.608 113.455 16.608C114.618 16.608 115.663 16.8587 116.591 17.36C117.519 17.8613 118.25 18.5547 118.783 19.44C119.316 20.3147 119.583 21.3013 119.583 22.4C119.583 23.4987 119.316 24.4907 118.783 25.376C118.25 26.2507 117.519 26.9387 116.591 27.44C115.663 27.9413 114.618 28.192 113.455 28.192ZM113.455 25.984C114.116 25.984 114.714 25.8347 115.247 25.536C115.78 25.2267 116.196 24.8 116.495 24.256C116.804 23.712 116.959 23.0933 116.959 22.4C116.959 21.7067 116.804 21.088 116.495 20.544C116.196 20 115.78 19.5787 115.247 19.28C114.714 18.9707 114.116 18.816 113.455 18.816C112.794 18.816 112.196 18.9707 111.663 19.28C111.13 19.5787 110.708 20 110.399 20.544C110.1 21.088 109.951 21.7067 109.951 22.4C109.951 23.0933 110.1 23.712 110.399 24.256C110.708 24.8 111.13 25.2267 111.663 25.536C112.196 25.8347 112.794 25.984 113.455 25.984ZM128.667 28L126.507 24.88H126.379H124.123V28H121.531V16.8H126.379C127.371 16.8 128.23 16.9653 128.955 17.296C129.691 17.6267 130.256 18.096 130.651 18.704C131.046 19.312 131.243 20.032 131.243 20.864C131.243 21.696 131.04 22.416 130.635 23.024C130.24 23.6213 129.675 24.08 128.939 24.4L131.451 28H128.667ZM128.619 20.864C128.619 20.2347 128.416 19.7547 128.011 19.424C127.606 19.0827 127.014 18.912 126.235 18.912H124.123V22.816H126.235C127.014 22.816 127.606 22.6453 128.011 22.304C128.416 21.9627 128.619 21.4827 128.619 20.864ZM142.449 27.04C141.915 27.4027 141.243 27.6853 140.433 27.888C139.633 28.0907 138.779 28.192 137.873 28.192C136.742 28.192 135.782 28.0533 134.993 27.776C134.203 27.488 133.606 27.0933 133.201 26.592C132.795 26.08 132.593 25.4987 132.593 24.848C132.593 24.2507 132.758 23.7227 133.089 23.264C133.419 22.8053 133.873 22.464 134.449 22.24C134.011 22.0053 133.67 21.6853 133.425 21.28C133.19 20.8747 133.073 20.4213 133.073 19.92C133.073 19.312 133.259 18.7573 133.633 18.256C134.006 17.7547 134.571 17.3547 135.329 17.056C136.086 16.7573 137.014 16.608 138.113 16.608C138.838 16.608 139.547 16.6827 140.241 16.832C140.934 16.9707 141.537 17.1627 142.049 17.408L141.329 19.392C140.347 18.9333 139.307 18.704 138.209 18.704C137.377 18.704 136.747 18.832 136.321 19.088C135.905 19.3333 135.697 19.6693 135.697 20.096C135.697 20.4907 135.835 20.7947 136.113 21.008C136.401 21.2107 136.833 21.312 137.409 21.312H140.465V23.36H137.249C136.598 23.36 136.097 23.472 135.745 23.696C135.393 23.92 135.217 24.2453 135.217 24.672C135.217 25.12 135.441 25.472 135.889 25.728C136.347 25.9733 137.046 26.096 137.985 26.096C138.646 26.096 139.307 26.0107 139.969 25.84C140.63 25.6587 141.19 25.408 141.649 25.088L142.449 27.04Z" fill="white"/>
<circle cx="165" cy="22" r="11.5" fill="#222222" stroke="white"/>
<line x1="161.707" y1="22" x2="165.443" y2="25.7363" stroke="white" stroke-linecap="round"/>
<line x1="165.398" y1="25.7363" x2="169.135" y2="22" stroke="white" stroke-linecap="round"/>
<line x1="161.707" y1="18" x2="165.443" y2="21.7363" stroke="white" stroke-opacity="0.38" stroke-linecap="round"/>
<line x1="165.398" y1="21.7363" x2="169.135" y2="18" stroke="white" stroke-opacity="0.38" stroke-linecap="round"/>
</svg>
